<svg height='100px' width='100px'  fill="#000000" xmlns="http://www.w3.org/2000/svg" viewBox="0 0 387.52 391.51" x="0px" y="0px"><title>BS-tricube</title><path stroke="black" stroke-width="2px" d="M386.77,222.2l-95.38-55.07V57a1.5,1.5,0,0,0-.75-1.3L194.51.2a1.5,1.5,0,0,0-1.5,0L96.88,55.7a1.5,1.5,0,0,0-.75,1.3V167.14L.75,222.2A1.5,1.5,0,0,0,0,223.5v111a1.5,1.5,0,0,0,.75,1.3l96.13,55.5a1.5,1.5,0,0,0,1.5,0l95.38-55.07,95.38,55.07a1.5,1.5,0,0,0,1.5,0l96.13-55.5a1.5,1.5,0,0,0,.75-1.3v-111A1.5,1.5,0,0,0,386.77,222.2ZM192.26,113.37V220.91L99.13,167.14V59.6ZM289.89,168h0Zm-1.5-.87-93.13,53.77V113.37L288.39,59.6Zm-190.76,2.6,93.13,53.77L97.63,277.27,4.5,223.5Zm1.5,110.13,93.13-53.77V333.64L99.13,387.41Zm96.13-53.77,93.13,53.77V387.41l-93.13-53.77Zm94.63,51.17L196.76,223.5l93.13-53.77L383,223.5Zm-96.13-274L286.89,57l-93.13,53.77L100.63,57ZM3,226.1l93.13,53.77V387.41L3,333.64ZM291.39,387.41V279.87l93.13-53.77V333.64Z"></path></svg>